M48
; DRILL file {KiCad 6.0.2+dfsg-1} date Sat Jun 20 18:51:18 2026
; FORMAT={-:-/ absolute / metric / decimal}
; #@! TF.CreationDate,2026-06-20T18:51:18+00:00
; #@! TF.GenerationSoftware,Kicad,Pcbnew,6.0.2+dfsg-1
; #@! TF.FileFunction,Plated,1,2,PTH
FMAT,2
METRIC
; #@! TA.AperFunction,Plated,PTH,ComponentDrill
T1C0.800
; #@! TA.AperFunction,Plated,PTH,ComponentDrill
T2C1.000
; #@! TA.AperFunction,Plated,PTH,ComponentDrill
T3C1.100
; #@! TA.AperFunction,Plated,PTH,ComponentDrill
T4C1.520
%
G90
G05
T1
X108.0Y-80.0
X108.0Y-84.0
X108.0Y-88.0
X110.0Y-72.0
X110.0Y-74.54
X115.62Y-80.0
X115.62Y-84.0
X115.62Y-88.0
X117.62Y-72.0
X117.62Y-74.54
X134.57Y-103.78
X137.07Y-103.78
X172.0Y-120.38
X172.0Y-128.0
X176.0Y-120.38
X176.0Y-128.0
X180.0Y-120.38
X180.0Y-128.0
X185.0Y-80.0
X185.0Y-82.54
X185.0Y-85.08
X185.0Y-87.62
X185.0Y-90.16
X185.0Y-92.7
X185.0Y-95.24
X185.0Y-97.78
X192.0Y-72.0
X192.62Y-80.0
X192.62Y-82.54
X192.62Y-85.08
X192.62Y-87.62
X192.62Y-90.16
X192.62Y-92.7
X192.62Y-95.24
X192.62Y-97.78
X194.5Y-72.0
T2
X110.0Y-96.0
X110.0Y-98.54
X110.0Y-101.08
X110.0Y-103.62
X110.0Y-106.16
X110.0Y-108.7
X110.0Y-111.24
X120.0Y-96.0
X120.0Y-98.54
X122.54Y-96.0
X122.54Y-98.54
X124.0Y-88.0
X124.0Y-90.54
X124.0Y-93.08
X124.0Y-95.62
X124.0Y-98.16
X124.0Y-100.7
X128.0Y-128.0
X128.0Y-130.54
X133.49Y-86.0
X133.49Y-88.54
X133.49Y-91.08
X133.49Y-93.62
X133.49Y-96.16
X133.49Y-98.7
X133.49Y-101.24
X133.49Y-103.78
X133.49Y-106.32
X133.49Y-108.86
X133.49Y-111.4
X133.49Y-113.94
X133.49Y-116.48
X133.49Y-119.02
X133.49Y-121.56
X136.0Y-128.0
X136.0Y-130.54
X138.57Y-86.0
X138.57Y-88.54
X138.57Y-91.08
X138.57Y-93.62
X138.57Y-96.16
X138.57Y-98.7
X138.57Y-101.24
X138.57Y-103.78
X138.57Y-106.32
X138.57Y-108.86
X138.57Y-111.4
X138.57Y-113.94
X138.57Y-116.48
X138.57Y-119.02
X138.57Y-121.56
X142.0Y-58.0
X142.0Y-60.54
X142.0Y-63.08
X142.0Y-65.62
X144.0Y-128.0
X144.0Y-130.54
X152.0Y-128.0
X152.0Y-130.54
X161.43Y-86.0
X161.43Y-88.54
X161.43Y-91.08
X161.43Y-93.62
X161.43Y-96.16
X161.43Y-98.7
X161.43Y-101.24
X161.43Y-103.78
X161.43Y-106.32
X161.43Y-108.86
X161.43Y-111.4
X161.43Y-113.94
X161.43Y-116.48
X161.43Y-119.02
X161.43Y-121.56
X162.0Y-128.0
X162.0Y-130.54
X166.51Y-86.0
X166.51Y-88.54
X166.51Y-91.08
X166.51Y-93.62
X166.51Y-96.16
X166.51Y-98.7
X166.51Y-101.24
X166.51Y-103.78
X166.51Y-106.32
X166.51Y-108.86
X166.51Y-111.4
X166.51Y-113.94
X166.51Y-116.48
X166.51Y-119.02
X166.51Y-121.56
X190.0Y-128.0
X190.0Y-130.54
X190.0Y-133.08
X190.0Y-135.62
X190.0Y-138.16
X190.0Y-140.7
T3
X110.0Y-110.0
X117.62Y-110.0
X124.0Y-110.0
X124.0Y-114.0
X131.62Y-110.0
X131.62Y-114.0
X138.0Y-110.0
X138.0Y-114.0
X145.62Y-110.0
X145.62Y-114.0
T4
X110.0Y-90.0
X112.0Y-128.0
X115.08Y-90.0
X117.08Y-128.0
X122.16Y-128.0
T2
G00X108.0Y-59.0
M15
G01X108.0Y-61.0
M16
G05
G00X110.0Y-64.7
M15
G01X112.0Y-64.7
M16
G05
G00X114.0Y-59.0
M15
G01X114.0Y-61.0
M16
G05
G00X186.0Y-61.0
M15
G01X186.0Y-59.0
M16
G05
G00X190.0Y-55.3
M15
G01X188.0Y-55.3
M16
G05
G00X192.0Y-61.0
M15
G01X192.0Y-59.0
M16
G05
T0
M30
