%TF.GenerationSoftware,KiCad,Pcbnew,6.0.2+dfsg-1*%
%TF.CreationDate,2026-06-20T15:45:59+00:00*%
%TF.ProjectId,k6_carrier_rev2,6b365f63-6172-4726-9965-725f72657632,rev?*%
%TF.SameCoordinates,Original*%
%TF.FileFunction,Legend,Bot*%
%TF.FilePolarity,Positive*%
%FSLAX46Y46*%
G04 Gerber Fmt 4.6, Leading zero omitted, Abs format (unit mm)*
G04 Created by KiCad (PCBNEW 6.0.2+dfsg-1) date 2026-06-20 15:45:59*
%MOMM*%
%LPD*%
G01*
G04 APERTURE LIST*
G04 Aperture macros list*
%AMRoundRect*
0 Rectangle with rounded corners*
0 $1 Rounding radius*
0 $2 $3 $4 $5 $6 $7 $8 $9 X,Y pos of 4 corners*
0 Add a 4 corners polygon primitive as box body*
4,1,4,$2,$3,$4,$5,$6,$7,$8,$9,$2,$3,0*
0 Add four circle primitives for the rounded corners*
1,1,$1+$1,$2,$3*
1,1,$1+$1,$4,$5*
1,1,$1+$1,$6,$7*
1,1,$1+$1,$8,$9*
0 Add four rect primitives between the rounded corners*
20,1,$1+$1,$2,$3,$4,$5,0*
20,1,$1+$1,$4,$5,$6,$7,0*
20,1,$1+$1,$6,$7,$8,$9,0*
20,1,$1+$1,$8,$9,$2,$3,0*%
G04 Aperture macros list end*
%ADD10R,1.700000X1.700000*%
%ADD11O,1.700000X1.700000*%
%ADD12C,3.200000*%
%ADD13C,1.600000*%
%ADD14O,1.600000X1.600000*%
%ADD15R,3.000000X3.000000*%
%ADD16C,3.000000*%
%ADD17R,1.600000X1.600000*%
%ADD18R,3.500000X3.500000*%
%ADD19RoundRect,0.750000X-0.750000X-1.000000X0.750000X-1.000000X0.750000X1.000000X-0.750000X1.000000X0*%
%ADD20RoundRect,0.875000X-0.875000X-0.875000X0.875000X-0.875000X0.875000X0.875000X-0.875000X0.875000X0*%
%ADD21RoundRect,0.750000X0.750000X1.000000X-0.750000X1.000000X-0.750000X-1.000000X0.750000X-1.000000X0*%
%ADD22RoundRect,0.875000X0.875000X0.875000X-0.875000X0.875000X-0.875000X-0.875000X0.875000X-0.875000X0*%
G04 APERTURE END LIST*
D10*
%TO.C,U_BUCK*%
X142000000Y-58000000D03*
D11*
X142000000Y-60540000D03*
X142000000Y-63080000D03*
X142000000Y-65620000D03*
%TD*%
D12*
%TO.C,H3*%
X104000000Y-126000000D03*
%TD*%
D13*
%TO.C,R5*%
X176000000Y-112000000D03*
D14*
X176000000Y-104380000D03*
%TD*%
D10*
%TO.C,J_ESP_R*%
X161430000Y-86000000D03*
D11*
X161430000Y-88540000D03*
X161430000Y-91080000D03*
X161430000Y-93620000D03*
X161430000Y-96160000D03*
X161430000Y-98700000D03*
X161430000Y-101240000D03*
X161430000Y-103780000D03*
X161430000Y-106320000D03*
X161430000Y-108860000D03*
X161430000Y-111400000D03*
X161430000Y-113940000D03*
X161430000Y-116480000D03*
X161430000Y-119020000D03*
X161430000Y-121560000D03*
%TD*%
D10*
%TO.C,T1*%
X116000000Y-96000000D03*
D11*
X116000000Y-98540000D03*
X116000000Y-101080000D03*
X116000000Y-103620000D03*
%TD*%
D10*
%TO.C,SW2*%
X136000000Y-112000000D03*
D11*
X136000000Y-114540000D03*
%TD*%
D10*
%TO.C,SW4*%
X152000000Y-112000000D03*
D11*
X152000000Y-114540000D03*
%TD*%
D10*
%TO.C,J_DEV_R*%
X166510000Y-86000000D03*
D11*
X166510000Y-88540000D03*
X166510000Y-91080000D03*
X166510000Y-93620000D03*
X166510000Y-96160000D03*
X166510000Y-98700000D03*
X166510000Y-101240000D03*
X166510000Y-103780000D03*
X166510000Y-106320000D03*
X166510000Y-108860000D03*
X166510000Y-111400000D03*
X166510000Y-113940000D03*
X166510000Y-116480000D03*
X166510000Y-119020000D03*
X166510000Y-121560000D03*
%TD*%
D13*
%TO.C,R2*%
X108000000Y-84000000D03*
D14*
X115620000Y-84000000D03*
%TD*%
D13*
%TO.C,R6*%
X180000000Y-112000000D03*
D14*
X180000000Y-104380000D03*
%TD*%
D10*
%TO.C,J_LAMP*%
X162000000Y-112000000D03*
D11*
X162000000Y-114540000D03*
%TD*%
D15*
%TO.C,J_PHONE*%
X112000000Y-112000000D03*
D16*
X117080000Y-112000000D03*
X122160000Y-112000000D03*
%TD*%
D10*
%TO.C,J_DEV_L*%
X133489999Y-86000000D03*
D11*
X133489999Y-88540000D03*
X133489999Y-91080000D03*
X133489999Y-93620000D03*
X133489999Y-96160000D03*
X133489999Y-98700000D03*
X133489999Y-101240000D03*
X133489999Y-103780000D03*
X133489999Y-106320000D03*
X133489999Y-108860000D03*
X133489999Y-111400000D03*
X133489999Y-113940000D03*
X133489999Y-116480000D03*
X133489999Y-119020000D03*
X133489999Y-121560000D03*
%TD*%
D17*
%TO.C,U2*%
X185000000Y-80000000D03*
D14*
X185000000Y-82540000D03*
X185000000Y-85080000D03*
X185000000Y-87620000D03*
X185000000Y-90160000D03*
X185000000Y-92700000D03*
X185000000Y-95240000D03*
X185000000Y-97780000D03*
X192620000Y-97780000D03*
X192620000Y-95240000D03*
X192620000Y-92700000D03*
X192620000Y-90160000D03*
X192620000Y-87620000D03*
X192620000Y-85080000D03*
X192620000Y-82540000D03*
X192620000Y-80000000D03*
%TD*%
D10*
%TO.C,J_ESP_L*%
X138570000Y-86000000D03*
D11*
X138570000Y-88540000D03*
X138570000Y-91080000D03*
X138570000Y-93620000D03*
X138570000Y-96160000D03*
X138570000Y-98700000D03*
X138570000Y-101240000D03*
X138570000Y-103780000D03*
X138570000Y-106320000D03*
X138570000Y-108860000D03*
X138570000Y-111400000D03*
X138570000Y-113940000D03*
X138570000Y-116480000D03*
X138570000Y-119020000D03*
X138570000Y-121560000D03*
%TD*%
D13*
%TO.C,R4*%
X172000000Y-112000000D03*
D14*
X172000000Y-104380000D03*
%TD*%
D13*
%TO.C,R3*%
X108000000Y-88000000D03*
D14*
X115620000Y-88000000D03*
%TD*%
D17*
%TO.C,U1*%
X110000000Y-72000000D03*
D14*
X110000000Y-74540000D03*
X117620000Y-74540000D03*
X117620000Y-72000000D03*
%TD*%
D18*
%TO.C,J1*%
X114000000Y-60000000D03*
D19*
X108000000Y-60000000D03*
D20*
X111000000Y-64700000D03*
%TD*%
D13*
%TO.C,C2*%
X134570000Y-103780000D03*
X137070000Y-103780000D03*
%TD*%
D10*
%TO.C,SW1*%
X128000000Y-112000000D03*
D11*
X128000000Y-114540000D03*
%TD*%
D10*
%TO.C,U_SD*%
X124000000Y-88000000D03*
D11*
X124000000Y-90540000D03*
X124000000Y-93080000D03*
X124000000Y-95620000D03*
X124000000Y-98160000D03*
X124000000Y-100700000D03*
%TD*%
D10*
%TO.C,J_COIN*%
X190000000Y-112000000D03*
D11*
X190000000Y-114540000D03*
X190000000Y-117080000D03*
X190000000Y-119620000D03*
X190000000Y-122160000D03*
X190000000Y-124700000D03*
%TD*%
D13*
%TO.C,R1*%
X108000000Y-80000000D03*
D14*
X120700000Y-80000000D03*
%TD*%
D18*
%TO.C,J2*%
X186000000Y-60000000D03*
D21*
X192000000Y-60000000D03*
D22*
X189000000Y-55300000D03*
%TD*%
D12*
%TO.C,H1*%
X104000000Y-54000000D03*
%TD*%
D10*
%TO.C,U_DAC*%
X110000000Y-96000000D03*
D11*
X110000000Y-98540000D03*
X110000000Y-101080000D03*
X110000000Y-103620000D03*
X110000000Y-106160000D03*
X110000000Y-108700000D03*
X110000000Y-111240000D03*
%TD*%
D12*
%TO.C,H2*%
X196000000Y-54000000D03*
%TD*%
%TO.C,H4*%
X196000000Y-126000000D03*
%TD*%
D13*
%TO.C,C1*%
X192000000Y-72000000D03*
X194500000Y-72000000D03*
%TD*%
D10*
%TO.C,SW3*%
X144000000Y-112000000D03*
D11*
X144000000Y-114540000D03*
%TD*%
M02*
