%TF.GenerationSoftware,KiCad,Pcbnew,6.0.2+dfsg-1*%
%TF.CreationDate,2026-06-20T16:37:57+00:00*%
%TF.ProjectId,k6_carrier_rev2,6b365f63-6172-4726-9965-725f72657632,rev?*%
%TF.SameCoordinates,Original*%
%TF.FileFunction,Other,User*%
%FSLAX46Y46*%
G04 Gerber Fmt 4.6, Leading zero omitted, Abs format (unit mm)*
G04 Created by KiCad (PCBNEW 6.0.2+dfsg-1) date 2026-06-20 16:37:57*
%MOMM*%
%LPD*%
G01*
G04 APERTURE LIST*
G04 Aperture macros list*
%AMRoundRect*
0 Rectangle with rounded corners*
0 $1 Rounding radius*
0 $2 $3 $4 $5 $6 $7 $8 $9 X,Y pos of 4 corners*
0 Add a 4 corners polygon primitive as box body*
4,1,4,$2,$3,$4,$5,$6,$7,$8,$9,$2,$3,0*
0 Add four circle primitives for the rounded corners*
1,1,$1+$1,$2,$3*
1,1,$1+$1,$4,$5*
1,1,$1+$1,$6,$7*
1,1,$1+$1,$8,$9*
0 Add four rect primitives between the rounded corners*
20,1,$1+$1,$2,$3,$4,$5,0*
20,1,$1+$1,$4,$5,$6,$7,0*
20,1,$1+$1,$6,$7,$8,$9,0*
20,1,$1+$1,$8,$9,$2,$3,0*%
G04 Aperture macros list end*
%TA.AperFunction,ComponentPad*%
%ADD10R,1.700000X1.700000*%
%TD*%
%TA.AperFunction,ComponentPad*%
%ADD11O,1.700000X1.700000*%
%TD*%
%TA.AperFunction,ComponentPad*%
%ADD12C,1.600000*%
%TD*%
%TA.AperFunction,ComponentPad*%
%ADD13O,1.600000X1.600000*%
%TD*%
%TA.AperFunction,ComponentPad*%
%ADD14R,1.600000X1.600000*%
%TD*%
%TA.AperFunction,ComponentPad*%
%ADD15R,3.500000X3.500000*%
%TD*%
%TA.AperFunction,ComponentPad*%
%ADD16RoundRect,0.750000X-0.750000X-1.000000X0.750000X-1.000000X0.750000X1.000000X-0.750000X1.000000X0*%
%TD*%
%TA.AperFunction,ComponentPad*%
%ADD17RoundRect,0.875000X-0.875000X-0.875000X0.875000X-0.875000X0.875000X0.875000X-0.875000X0.875000X0*%
%TD*%
%TA.AperFunction,ComponentPad*%
%ADD18R,3.000000X3.000000*%
%TD*%
%TA.AperFunction,ComponentPad*%
%ADD19C,3.000000*%
%TD*%
%TA.AperFunction,ComponentPad*%
%ADD20RoundRect,0.750000X0.750000X1.000000X-0.750000X1.000000X-0.750000X-1.000000X0.750000X-1.000000X0*%
%TD*%
%TA.AperFunction,ComponentPad*%
%ADD21RoundRect,0.875000X0.875000X0.875000X-0.875000X0.875000X-0.875000X-0.875000X0.875000X-0.875000X0*%
%TD*%
G04 APERTURE END LIST*
D10*
%TO.P,J_COIN,1*%
%TO.N,GPIO36*%
X190000000Y-112000000D03*
D11*
%TO.P,J_COIN,2*%
%TO.N,GPIO39*%
X190000000Y-114540000D03*
%TO.P,J_COIN,3*%
%TO.N,GPIO35*%
X190000000Y-117080000D03*
%TO.P,J_COIN,4*%
%TO.N,+3V3*%
X190000000Y-119620000D03*
%TO.P,J_COIN,5*%
%TO.N,GND*%
X190000000Y-122160000D03*
%TO.P,J_COIN,6*%
%TO.N,+5V*%
X190000000Y-124700000D03*
%TD*%
D12*
%TO.P,R6,1*%
%TO.N,+3V3*%
X180000000Y-112000000D03*
D13*
%TO.P,R6,2*%
%TO.N,GPIO35*%
X180000000Y-104380000D03*
%TD*%
D12*
%TO.P,R2,1*%
%TO.N,LINE_A*%
X108000000Y-84000000D03*
D13*
%TO.P,R2,2*%
%TO.N,OPTO_A*%
X115620000Y-84000000D03*
%TD*%
D10*
%TO.P,U_BUCK,1*%
%TO.N,+12V*%
X142000000Y-58000000D03*
D11*
%TO.P,U_BUCK,2*%
%TO.N,GND*%
X142000000Y-60540000D03*
%TO.P,U_BUCK,3*%
%TO.N,+5V*%
X142000000Y-63080000D03*
%TO.P,U_BUCK,4*%
%TO.N,GND*%
X142000000Y-65620000D03*
%TD*%
D14*
%TO.P,U1,1*%
%TO.N,OPTO_A*%
X110000000Y-72000000D03*
D13*
%TO.P,U1,2*%
%TO.N,LINE_B*%
X110000000Y-74540000D03*
%TO.P,U1,3*%
%TO.N,GPIO34*%
X117620000Y-74540000D03*
%TO.P,U1,4*%
%TO.N,+3V3*%
X117620000Y-72000000D03*
%TD*%
D15*
%TO.P,J1,1*%
%TO.N,+12V*%
X114000000Y-60000000D03*
D16*
%TO.P,J1,2*%
%TO.N,GND*%
X108000000Y-60000000D03*
D17*
%TO.P,J1,3*%
%TO.N,N/C*%
X111000000Y-64700000D03*
%TD*%
D10*
%TO.P,T1,1*%
%TO.N,DAC_LP*%
X120000000Y-96000000D03*
D11*
%TO.P,T1,2*%
%TO.N,LINE_A*%
X122540000Y-96000000D03*
%TO.P,T1,3*%
%TO.N,DAC_LN*%
X120000000Y-98540000D03*
%TO.P,T1,4*%
%TO.N,LINE_B*%
X122540000Y-98540000D03*
%TD*%
D10*
%TO.P,U_SD,1*%
%TO.N,GPIO5*%
X124000000Y-88000000D03*
D11*
%TO.P,U_SD,2*%
%TO.N,GPIO18*%
X124000000Y-90540000D03*
%TO.P,U_SD,3*%
%TO.N,GPIO23*%
X124000000Y-93080000D03*
%TO.P,U_SD,4*%
%TO.N,GPIO19*%
X124000000Y-95620000D03*
%TO.P,U_SD,5*%
%TO.N,+3V3*%
X124000000Y-98160000D03*
%TO.P,U_SD,6*%
%TO.N,GND*%
X124000000Y-100700000D03*
%TD*%
D18*
%TO.P,J_SPK,1*%
%TO.N,DAC_LP*%
X110000000Y-90000000D03*
D19*
%TO.P,J_SPK,2*%
%TO.N,DAC_LN*%
X115080000Y-90000000D03*
%TD*%
D10*
%TO.P,SW3,1*%
%TO.N,GPIO27*%
X144000000Y-112000000D03*
D11*
%TO.P,SW3,2*%
%TO.N,GND*%
X144000000Y-114540000D03*
%TD*%
D10*
%TO.P,J_ESP_R,1*%
%TO.N,+3V3*%
X161430000Y-86000000D03*
D11*
%TO.P,J_ESP_R,2*%
%TO.N,GND*%
X161430000Y-88540000D03*
%TO.P,J_ESP_R,3*%
%TO.N,GPIO15*%
X161430000Y-91080000D03*
%TO.P,J_ESP_R,4*%
%TO.N,GPIO2*%
X161430000Y-93620000D03*
%TO.P,J_ESP_R,5*%
%TO.N,GPIO4*%
X161430000Y-96160000D03*
%TO.P,J_ESP_R,6*%
%TO.N,GPIO16*%
X161430000Y-98700000D03*
%TO.P,J_ESP_R,7*%
%TO.N,GPIO17*%
X161430000Y-101240000D03*
%TO.P,J_ESP_R,8*%
%TO.N,GPIO5*%
X161430000Y-103780000D03*
%TO.P,J_ESP_R,9*%
%TO.N,GPIO18*%
X161430000Y-106320000D03*
%TO.P,J_ESP_R,10*%
%TO.N,GPIO19*%
X161430000Y-108860000D03*
%TO.P,J_ESP_R,11*%
%TO.N,GPIO21*%
X161430000Y-111400000D03*
%TO.P,J_ESP_R,12*%
%TO.N,N/C*%
X161430000Y-113940000D03*
%TO.P,J_ESP_R,13*%
X161430000Y-116480000D03*
%TO.P,J_ESP_R,14*%
%TO.N,GPIO22*%
X161430000Y-119020000D03*
%TO.P,J_ESP_R,15*%
%TO.N,GPIO23*%
X161430000Y-121560000D03*
%TD*%
D12*
%TO.P,R1,1*%
%TO.N,+12V*%
X108000000Y-80000000D03*
D13*
%TO.P,R1,2*%
%TO.N,LINE_A*%
X115620000Y-80000000D03*
%TD*%
D10*
%TO.P,J_DEV_L,1*%
%TO.N,+5V*%
X133489999Y-86000000D03*
D11*
%TO.P,J_DEV_L,2*%
%TO.N,GND*%
X133489999Y-88540000D03*
%TO.P,J_DEV_L,3*%
%TO.N,GPIO13*%
X133489999Y-91080000D03*
%TO.P,J_DEV_L,4*%
%TO.N,GPIO12*%
X133489999Y-93620000D03*
%TO.P,J_DEV_L,5*%
%TO.N,GPIO14*%
X133489999Y-96160000D03*
%TO.P,J_DEV_L,6*%
%TO.N,GPIO27*%
X133489999Y-98700000D03*
%TO.P,J_DEV_L,7*%
%TO.N,GPIO26*%
X133489999Y-101240000D03*
%TO.P,J_DEV_L,8*%
%TO.N,GPIO25*%
X133489999Y-103780000D03*
%TO.P,J_DEV_L,9*%
%TO.N,GPIO33*%
X133489999Y-106320000D03*
%TO.P,J_DEV_L,10*%
%TO.N,GPIO32*%
X133489999Y-108860000D03*
%TO.P,J_DEV_L,11*%
%TO.N,GPIO35*%
X133489999Y-111400000D03*
%TO.P,J_DEV_L,12*%
%TO.N,GPIO34*%
X133489999Y-113940000D03*
%TO.P,J_DEV_L,13*%
%TO.N,GPIO39*%
X133489999Y-116480000D03*
%TO.P,J_DEV_L,14*%
%TO.N,GPIO36*%
X133489999Y-119020000D03*
%TO.P,J_DEV_L,15*%
%TO.N,N/C*%
X133489999Y-121560000D03*
%TD*%
D10*
%TO.P,J_LAMP,1*%
%TO.N,GPIO13*%
X162000000Y-112000000D03*
D11*
%TO.P,J_LAMP,2*%
%TO.N,GND*%
X162000000Y-114540000D03*
%TD*%
D15*
%TO.P,J2,1*%
%TO.N,+48V*%
X186000000Y-60000000D03*
D20*
%TO.P,J2,2*%
%TO.N,GND*%
X192000000Y-60000000D03*
D21*
%TO.P,J2,3*%
%TO.N,N/C*%
X189000000Y-55300000D03*
%TD*%
D18*
%TO.P,J_PHONE,1*%
%TO.N,LINE_A*%
X112000000Y-112000000D03*
D19*
%TO.P,J_PHONE,2*%
%TO.N,LINE_B*%
X117080000Y-112000000D03*
%TO.P,J_PHONE,3*%
%TO.N,BELL*%
X122160000Y-112000000D03*
%TD*%
D12*
%TO.P,R3,1*%
%TO.N,GPIO34*%
X108000000Y-88000000D03*
D13*
%TO.P,R3,2*%
%TO.N,GND*%
X115620000Y-88000000D03*
%TD*%
D12*
%TO.P,R4,1*%
%TO.N,+3V3*%
X172000000Y-112000000D03*
D13*
%TO.P,R4,2*%
%TO.N,GPIO36*%
X172000000Y-104380000D03*
%TD*%
D10*
%TO.P,SW1,1*%
%TO.N,GPIO32*%
X128000000Y-112000000D03*
D11*
%TO.P,SW1,2*%
%TO.N,GND*%
X128000000Y-114540000D03*
%TD*%
D10*
%TO.P,SW4,1*%
%TO.N,GPIO14*%
X152000000Y-112000000D03*
D11*
%TO.P,SW4,2*%
%TO.N,GND*%
X152000000Y-114540000D03*
%TD*%
D12*
%TO.P,C1,1*%
%TO.N,+5V*%
X192000000Y-72000000D03*
%TO.P,C1,2*%
%TO.N,GND*%
X194500000Y-72000000D03*
%TD*%
%TO.P,R5,1*%
%TO.N,+3V3*%
X176000000Y-112000000D03*
D13*
%TO.P,R5,2*%
%TO.N,GPIO39*%
X176000000Y-104380000D03*
%TD*%
D10*
%TO.P,J_DEV_R,1*%
%TO.N,+3V3*%
X166510000Y-86000000D03*
D11*
%TO.P,J_DEV_R,2*%
%TO.N,GND*%
X166510000Y-88540000D03*
%TO.P,J_DEV_R,3*%
%TO.N,GPIO15*%
X166510000Y-91080000D03*
%TO.P,J_DEV_R,4*%
%TO.N,GPIO2*%
X166510000Y-93620000D03*
%TO.P,J_DEV_R,5*%
%TO.N,GPIO4*%
X166510000Y-96160000D03*
%TO.P,J_DEV_R,6*%
%TO.N,GPIO16*%
X166510000Y-98700000D03*
%TO.P,J_DEV_R,7*%
%TO.N,GPIO17*%
X166510000Y-101240000D03*
%TO.P,J_DEV_R,8*%
%TO.N,GPIO5*%
X166510000Y-103780000D03*
%TO.P,J_DEV_R,9*%
%TO.N,GPIO18*%
X166510000Y-106320000D03*
%TO.P,J_DEV_R,10*%
%TO.N,GPIO19*%
X166510000Y-108860000D03*
%TO.P,J_DEV_R,11*%
%TO.N,GPIO21*%
X166510000Y-111400000D03*
%TO.P,J_DEV_R,12*%
%TO.N,N/C*%
X166510000Y-113940000D03*
%TO.P,J_DEV_R,13*%
X166510000Y-116480000D03*
%TO.P,J_DEV_R,14*%
%TO.N,GPIO22*%
X166510000Y-119020000D03*
%TO.P,J_DEV_R,15*%
%TO.N,GPIO23*%
X166510000Y-121560000D03*
%TD*%
D10*
%TO.P,J_ESP_L,1*%
%TO.N,+5V*%
X138570000Y-86000000D03*
D11*
%TO.P,J_ESP_L,2*%
%TO.N,GND*%
X138570000Y-88540000D03*
%TO.P,J_ESP_L,3*%
%TO.N,GPIO13*%
X138570000Y-91080000D03*
%TO.P,J_ESP_L,4*%
%TO.N,GPIO12*%
X138570000Y-93620000D03*
%TO.P,J_ESP_L,5*%
%TO.N,GPIO14*%
X138570000Y-96160000D03*
%TO.P,J_ESP_L,6*%
%TO.N,GPIO27*%
X138570000Y-98700000D03*
%TO.P,J_ESP_L,7*%
%TO.N,GPIO26*%
X138570000Y-101240000D03*
%TO.P,J_ESP_L,8*%
%TO.N,GPIO25*%
X138570000Y-103780000D03*
%TO.P,J_ESP_L,9*%
%TO.N,GPIO33*%
X138570000Y-106320000D03*
%TO.P,J_ESP_L,10*%
%TO.N,GPIO32*%
X138570000Y-108860000D03*
%TO.P,J_ESP_L,11*%
%TO.N,GPIO35*%
X138570000Y-111400000D03*
%TO.P,J_ESP_L,12*%
%TO.N,GPIO34*%
X138570000Y-113940000D03*
%TO.P,J_ESP_L,13*%
%TO.N,GPIO39*%
X138570000Y-116480000D03*
%TO.P,J_ESP_L,14*%
%TO.N,GPIO36*%
X138570000Y-119020000D03*
%TO.P,J_ESP_L,15*%
%TO.N,N/C*%
X138570000Y-121560000D03*
%TD*%
D12*
%TO.P,C2,1*%
%TO.N,+5V*%
X134570000Y-103780000D03*
%TO.P,C2,2*%
%TO.N,GND*%
X137070000Y-103780000D03*
%TD*%
D14*
%TO.P,U2,1*%
%TO.N,GPIO4*%
X185000000Y-80000000D03*
D13*
%TO.P,U2,2*%
%TO.N,GPIO16*%
X185000000Y-82540000D03*
%TO.P,U2,3*%
%TO.N,BELL*%
X185000000Y-85080000D03*
%TO.P,U2,4*%
%TO.N,GND*%
X185000000Y-87620000D03*
%TO.P,U2,5*%
X185000000Y-90160000D03*
%TO.P,U2,6*%
%TO.N,LINE_B*%
X185000000Y-92700000D03*
%TO.P,U2,7*%
%TO.N,GPIO17*%
X185000000Y-95240000D03*
%TO.P,U2,8*%
%TO.N,+48V*%
X185000000Y-97780000D03*
%TO.P,U2,9*%
%TO.N,GND*%
X192620000Y-97780000D03*
%TO.P,U2,10*%
%TO.N,N/C*%
X192620000Y-95240000D03*
%TO.P,U2,11*%
X192620000Y-92700000D03*
%TO.P,U2,12*%
%TO.N,GND*%
X192620000Y-90160000D03*
%TO.P,U2,13*%
X192620000Y-87620000D03*
%TO.P,U2,14*%
%TO.N,N/C*%
X192620000Y-85080000D03*
%TO.P,U2,15*%
X192620000Y-82540000D03*
%TO.P,U2,16*%
%TO.N,+5V*%
X192620000Y-80000000D03*
%TD*%
D10*
%TO.P,U_DAC,1*%
%TO.N,+5V*%
X110000000Y-96000000D03*
D11*
%TO.P,U_DAC,2*%
%TO.N,GND*%
X110000000Y-98540000D03*
%TO.P,U_DAC,3*%
%TO.N,N/C*%
X110000000Y-101080000D03*
%TO.P,U_DAC,4*%
X110000000Y-103620000D03*
%TO.P,U_DAC,5*%
%TO.N,GPIO22*%
X110000000Y-106160000D03*
%TO.P,U_DAC,6*%
%TO.N,GPIO26*%
X110000000Y-108700000D03*
%TO.P,U_DAC,7*%
%TO.N,GPIO25*%
X110000000Y-111240000D03*
%TD*%
D10*
%TO.P,SW2,1*%
%TO.N,GPIO33*%
X136000000Y-112000000D03*
D11*
%TO.P,SW2,2*%
%TO.N,GND*%
X136000000Y-114540000D03*
%TD*%
M02*
